<?xml version="1.0" encoding="utf-8"?>
<!-- Generator: Adobe Illustrator 23.0.6, SVG Export Plug-In . SVG Version: 6.00 Build 0)  -->
<svg version="1.1" id="Layer_1" xmlns="http://www.w3.org/2000/svg" xmlns:xlink="http://www.w3.org/1999/xlink" x="0px" y="0px"
	 viewBox="0 0 510.1 46.3" style="enable-background:new 0 0 510.1 46.3;" xml:space="preserve">
<style type="text/css">
	.st0{fill:#17C8FF;}
</style>
<title>tpklazza-logo</title>
<g>
	<g id="Layer_1-2">
		<path class="st0" d="M13,9.9L0,10.1V0h39.5v9.7l-13,0.1c0,11.8,0,23.5,0,35.3L13,45.7V9.9z"/>
		<path class="st0" d="M43.1,0h24.1c5.5,0,9.6,1.4,12.4,4.2c2.8,2.8,4.2,6.5,4.2,11.1c0,2.7-0.8,5.4-2.3,7.6
			c-1.6,2.3-3.7,4.1-6.3,5.2c0.5,0.4,1,0.9,1.4,1.4c0.5,0.7,0.9,1.5,1.3,2.3c2.1,4.5,3.2,6.7,5.3,11.1L69,43.5l-4.8-10.3
			c-0.3-0.7-0.8-1.3-1.4-1.7c-0.7-0.4-1.5-0.5-2.3-0.4l-3.8,0.1c0,5.1,0,7.7,0,12.8l-13.5,0.5C43.1,29.6,43.1,14.8,43.1,0z
			 M63.7,21.1c1.7,0.1,3.3-0.5,4.6-1.5c1.1-1.1,1.7-2.6,1.6-4.2c0-3.8-1.9-5.7-5.7-5.7l-7.5,0.1c0,4.6,0,6.9,0,11.4L63.7,21.1z"/>
		<path class="st0" d="M88.8,0h13.5v42.4l-13.5,0.4V0z"/>
		<path class="st0" d="M108.7,0h23.9c5.5,0,9.6,1.4,12.4,4.2c2.9,2.9,4.4,6.9,4.2,11c0.1,5.6-3,10.7-8,13.2c-2.8,1.4-5.9,2.1-9,2.1
			l-10.1,0.2v11.2l-13.5,0.3L108.7,0z M129.2,21.2c1.7,0.1,3.4-0.5,4.6-1.6c1.1-1.1,1.7-2.7,1.6-4.2c0.1-1.6-0.4-3.2-1.5-4.4
			c-1.2-1.1-2.8-1.7-4.4-1.6h-7.3c0,4.8,0,7.1,0,11.9L129.2,21.2z"/>
		<path class="st0" d="M163,8.9c-5.2,0-7.8,0-13,0.1V0h39.5v8.8h-13c0,10.7,0,21.3,0,32L163,41.1C163,30.4,163,19.6,163,8.9z"/>
		<path class="st0" d="M207.6,25.6C202.1,17.1,196.5,8.6,191,0h14.1c3.7,6.1,5.6,9.2,9.3,15.2L223.7,0h14.1
			c-5.6,8.5-11.1,17-16.7,25.6v14.8c-5.4,0-8.1,0.1-13.5,0.1L207.6,25.6z"/>
		<path class="st0" d="M240.3,0h13.5v14.2l14-14.2h15.4c-6.5,6.6-9.8,9.9-16.3,16.5c5.8,7.9,11.6,15.9,17.5,23.8
			c-5.8,0-8.6,0-14.4,0c-4.6-6.5-6.9-9.8-11.4-16.3l-4.7,4.6v11.6h-13.5C240.3,26.9,240.3,13.4,240.3,0z"/>
		<path class="st0" d="M289.4,0h13.5c0,10.5,0,21,0,31.4c8.3,0.1,12.5,0.1,20.8,0.2c0,3.6,0,5.5,0,9.1c-11.5-0.1-22.9-0.2-34.4-0.3
			C289.4,26.9,289.4,13.5,289.4,0z"/>
		<path class="st0" d="M342.6,0h14.3c6,13.9,11.9,27.7,17.8,41.6c-5.6-0.1-8.5-0.2-14.1-0.3c-1.5-3.5-2.3-5.3-3.9-8.8l-13.9-0.2
			l-3.8,8.7l-14.1-0.2C330.8,27.2,336.7,13.6,342.6,0z M354.9,23.8c-2.1-4.9-3.1-7.3-5.2-12.1c-2.1,4.8-3.1,7.2-5.2,12L354.9,23.8z"
			/>
		<path class="st0" d="M378.3,35.6c6.7-8.7,13.4-17.4,20.1-26.2l-19-0.1V0h36.8v6.5c-6.6,8.8-13.2,17.5-19.9,26.2
			c8.1,0.2,12.2,0.2,20.3,0.4v9.5c-12.8-0.4-25.5-0.7-38.3-1L378.3,35.6z"/>
		<path class="st0" d="M418.7,36.5c6.8-8.9,13.5-17.8,20.1-26.8l-19.1-0.1V0h36.8v6.7c-6.6,9-13.2,18-19.9,26.9
			c8.1,0.2,12.2,0.3,20.3,0.6c0,3.9,0,5.9,0,9.9c-12.8-0.5-25.5-0.9-38.3-1.3C418.7,40.2,418.7,39,418.7,36.5z"/>
		<path class="st0" d="M478,0h14.3c6,15.4,11.9,30.8,17.8,46.3c-5.6-0.3-8.5-0.4-14.1-0.7c-1.5-4-2.3-5.9-3.9-9.8
			c-5.6-0.2-8.4-0.3-13.9-0.5c-1.5,3.8-2.3,5.7-3.8,9.4c-5.6-0.2-8.5-0.3-14.1-0.5C466.3,29.5,472.2,14.7,478,0z M490.3,26.2
			c-2.1-5.4-3.1-8.1-5.2-13.4c-2.1,5.3-3.1,7.9-5.1,13.2L490.3,26.2z"/>
	</g>
</g>
</svg>
